<svg width="24" height="24" viewBox="0 0 24 24" fill="none" xmlns="http://www.w3.org/2000/svg">
<mask id="mask0_1441_50" style="mask-type:alpha" maskUnits="userSpaceOnUse" x="0" y="0" width="24" height="24">
<rect width="24" height="24" fill="#D9D9D9"/>
</mask>
<g mask="url(#mask0_1441_50)">
<path d="M15.7514 9.12342L7.70662 17.1682C7.55613 17.3187 7.37935 17.3939 7.17629 17.3937C6.97323 17.3939 6.79646 17.3187 6.64596 17.1682C6.49547 17.0177 6.42028 16.8409 6.42039 16.6378C6.42028 16.4348 6.49547 16.258 6.64596 16.1075L14.6907 8.06276L7.38029 8.06276C7.17004 8.06276 6.99509 7.99164 6.85544 7.84939C6.71591 7.70703 6.64608 7.52619 6.64596 7.30687C6.65327 7.09473 6.72445 6.91749 6.85951 6.77512C6.99456 6.63276 7.17181 6.56158 7.39125 6.56158L16.3577 6.56158C16.4902 6.56158 16.6067 6.58473 16.7072 6.63105C16.8079 6.67725 16.9008 6.74295 16.986 6.82816C17.0712 6.91336 17.1369 7.00629 17.1831 7.10693C17.2294 7.20746 17.2526 7.32395 17.2526 7.45642L17.2526 16.4229C17.2526 16.6188 17.1814 16.7901 17.039 16.937C16.8967 17.0838 16.7194 17.1609 16.5073 17.1682C16.288 17.1681 16.1072 17.0969 15.9649 16.9546C15.8226 16.8123 15.7513 16.6314 15.7512 16.4121L15.7514 9.12342Z" fill="white"/>
</g>
</svg>
