<svg width="288" height="60" viewBox="0 0 288 60" fill="none" xmlns="http://www.w3.org/2000/svg">
<g clip-path="url(#clip0_1425_2891)">
<path d="M59.6438 51.0714L-0.00146484 57.2496V60H59.6438V51.0714Z" fill="#2A2B77"/>
<path d="M59.6438 19.26L44.3372 37.802H-0.00146484V41.2703H59.6438V19.26Z" fill="#2A2B77"/>
<path d="M18.5595 8.68557V15.88L-0.000976562 23.8144V26.8667L40.1871 11.2997V18.4867L-0.000976562 28.1149V31.1745L59.6443 17.2128V0H-0.000976562V20.4381L18.5595 8.68557Z" fill="#37B5E8"/>
<path d="M-0.00146484 47.8866V50.6333H59.6438V41.7084L-0.00146484 47.8866Z" fill="#2A2B77"/>
<path d="M80.4387 50.4861V9.12378H96.9019C99.9252 9.12378 102.447 9.57297 104.471 10.475C106.491 11.3771 108.01 12.6253 109.028 14.2232C110.045 15.8211 110.554 17.6547 110.554 19.7276C110.554 21.344 110.232 22.7578 109.588 23.9802C108.947 25.1989 108.065 26.1967 106.949 26.9699C105.833 27.7468 104.559 28.2954 103.124 28.6157V29.0207C104.691 29.087 106.158 29.5325 107.531 30.3535C108.903 31.1746 110.016 32.3233 110.873 33.7961C111.729 35.2725 112.157 37.0251 112.157 39.0575C112.157 41.2519 111.619 43.207 110.543 44.9227C109.467 46.6385 107.875 47.9971 105.774 48.9912C103.673 49.989 101.082 50.4861 98.0036 50.4861H80.4351H80.4387ZM89.1315 26.4323H95.577C96.7665 26.4323 97.8279 26.2188 98.7576 25.7954C99.6873 25.3683 100.427 24.7681 100.968 23.9875C101.51 23.207 101.781 22.2718 101.781 21.182C101.781 19.6871 101.254 18.4831 100.203 17.5663C99.1529 16.6496 97.6669 16.193 95.7344 16.193H89.1278V26.4323H89.1315ZM89.1315 43.3358H96.2212C98.6442 43.3358 100.408 42.8683 101.521 41.9331C102.634 40.9979 103.186 39.7497 103.186 38.1849C103.186 37.0398 102.912 36.031 102.363 35.1547C101.814 34.2784 101.034 33.5936 100.024 33.0965C99.0138 32.5995 97.8133 32.3491 96.4188 32.3491H89.1315V43.3358Z" fill="#2A2B77"/>
<path d="M123.931 9.12378V50.4861H115.377V9.12378H123.931Z" fill="#2A2B77"/>
<path d="M148.271 37.2754V19.4624H156.825V50.4823H148.611V44.849H148.289C147.594 46.6678 146.441 48.1259 144.827 49.2304C143.213 50.335 141.251 50.8873 138.934 50.8873C136.873 50.8873 135.058 50.416 133.491 49.4734C131.929 48.5309 130.706 47.1907 129.828 45.4528C128.949 43.715 128.506 41.6347 128.492 39.212V19.4624H137.045V37.6804C137.06 39.5103 137.547 40.9572 138.509 42.0213C139.476 43.0854 140.764 43.6156 142.386 43.6156C143.414 43.6156 144.38 43.3762 145.277 42.8976C146.174 42.4226 146.898 41.7084 147.455 40.7695C148.011 39.8269 148.282 38.6634 148.267 37.2754H148.271Z" fill="#2A2B77"/>
<path d="M189.598 37.1759V34.8122C189.598 32.1722 189.228 29.8674 188.492 27.8939C187.756 25.9204 186.728 24.282 185.414 22.9749C184.093 21.6715 182.555 20.6884 180.795 20.0368C179.034 19.3851 177.135 19.0574 175.103 19.0574C172.08 19.0574 169.445 19.7312 167.205 21.075C164.961 22.4226 163.226 24.3004 161.997 26.712C160.767 29.12 160.152 31.9219 160.152 35.1141C160.152 38.3063 160.767 41.215 161.997 43.6045C163.226 45.994 164.983 47.8387 167.267 49.1384C169.551 50.4381 172.274 51.0861 175.451 51.0861C177.991 51.0861 180.239 50.6921 182.186 49.9042C184.133 49.1163 185.729 48.0117 186.966 46.5905C188.203 45.1693 189.023 43.5051 189.425 41.5942L181.512 41.0677C181.219 41.8482 180.791 42.5073 180.231 43.0449C179.668 43.5824 178.99 43.9874 178.2 44.2562C177.409 44.525 176.542 44.6612 175.59 44.6612C174.159 44.6612 172.922 44.3556 171.875 43.7518C170.832 43.1479 170.027 42.2827 169.456 41.1671C168.889 40.0478 168.603 38.7223 168.603 37.1907V37.1686H189.605L189.598 37.1759ZM171.798 26.3806C172.794 25.7842 173.943 25.4823 175.239 25.4823C176.535 25.4823 177.578 25.7547 178.522 26.2996C179.466 26.8446 180.206 27.5957 180.74 28.5493C181.278 29.5066 181.545 30.6038 181.545 31.8409H168.632C168.687 30.7326 168.943 29.7054 169.46 28.7812C170.02 27.7798 170.803 26.9771 171.798 26.377V26.3806Z" fill="#2A2B77"/>
<path d="M193.079 50.4861V9.12378H201.632V24.6724H201.892C202.265 23.8366 202.811 22.9861 203.528 22.1172C204.246 21.2482 205.183 20.5229 206.339 19.9375C207.496 19.3521 208.938 19.0612 210.665 19.0612C212.913 19.0612 214.988 19.6503 216.888 20.8285C218.787 22.0067 220.306 23.7777 221.445 26.1378C222.583 28.5015 223.15 31.4581 223.15 35.0148C223.15 38.5715 222.597 41.3955 221.492 43.7703C220.387 46.1488 218.89 47.9456 216.994 49.1643C215.102 50.383 212.982 50.9905 210.64 50.9905C208.978 50.9905 207.573 50.7144 206.412 50.1621C205.256 49.6098 204.308 48.9139 203.572 48.0708C202.836 47.2276 202.273 46.3771 201.885 45.5155H201.504V50.4824H193.071L193.079 50.4861ZM201.449 34.9743C201.449 36.8189 201.702 38.4279 202.211 39.8012C202.719 41.1746 203.455 42.2423 204.421 43.0045C205.388 43.763 206.555 44.1459 207.935 44.1459C209.315 44.1459 210.504 43.7593 211.467 42.9861C212.433 42.2129 213.162 41.1341 213.663 39.7534C214.165 38.3764 214.417 36.7821 214.417 34.978C214.417 33.1739 214.168 31.6127 213.674 30.2504C213.176 28.8918 212.448 27.8278 211.485 27.0582C210.519 26.2887 209.337 25.9058 207.931 25.9058C206.526 25.9058 205.366 26.2777 204.407 27.0177C203.451 27.7578 202.716 28.8071 202.207 30.1694C201.698 31.5281 201.446 33.1297 201.446 34.9743H201.449Z" fill="#2A2B77"/>
<path d="M230.888 15.4639C229.618 15.4639 228.527 15.0368 227.616 14.1826C226.704 13.3284 226.25 12.3011 226.25 11.1008C226.25 9.90053 226.704 8.89906 227.616 8.04118C228.527 7.18699 229.61 6.75989 230.866 6.75989C232.121 6.75989 233.245 7.18699 234.149 8.04118C235.053 8.89906 235.503 9.91894 235.503 11.1008C235.503 12.2827 235.053 13.3284 234.149 14.1826C233.245 15.0368 232.158 15.4639 230.888 15.4639ZM226.573 50.4859V19.4624H235.126V50.4823H226.573V50.4859Z" fill="#2A2B77"/>
<path d="M239.69 50.4859V19.4624H247.98V24.8747H248.302C248.866 22.9491 249.807 21.4911 251.135 20.5006C252.46 19.5102 253.986 19.0168 255.714 19.0168C256.142 19.0168 256.603 19.0426 257.097 19.0978C257.595 19.1494 258.027 19.2267 258.404 19.3188V26.955C258.002 26.8335 257.445 26.7267 256.735 26.631C256.025 26.5353 255.377 26.4874 254.788 26.4874C253.529 26.4874 252.409 26.7599 251.428 27.3048C250.443 27.8497 249.667 28.6045 249.1 29.5765C248.529 30.5448 248.247 31.6641 248.247 32.9307V50.4786H239.694L239.69 50.4859Z" fill="#2A2B77"/>
<path d="M270.453 50.9905C268.111 50.9905 265.995 50.383 264.099 49.1643C262.203 47.9456 260.706 46.1488 259.601 43.7703C258.496 41.3955 257.943 38.4758 257.943 35.0148C257.943 31.5538 258.51 28.5015 259.648 26.1378C260.787 23.774 262.302 22.0067 264.198 20.8285C266.09 19.6503 268.169 19.0612 270.431 19.0612C272.159 19.0612 273.601 19.3521 274.757 19.9375C275.914 20.5229 276.851 21.2482 277.568 22.1172C278.282 22.9861 278.831 23.8366 279.205 24.6724H279.464V9.12378H287.996V50.4861H279.563V45.5192H279.201C278.798 46.3808 278.235 47.2313 277.506 48.0744C276.778 48.9176 275.834 49.6135 274.673 50.1657C273.517 50.718 272.108 50.9942 270.446 50.9942L270.453 50.9905ZM273.165 44.1422C274.545 44.1422 275.713 43.763 276.668 43.0008C277.623 42.2423 278.363 41.1709 278.879 39.7976C279.395 38.4242 279.651 36.8152 279.651 34.9706C279.651 33.126 279.398 31.5244 278.886 30.1658C278.377 28.8071 277.642 27.7541 276.679 27.0141C275.713 26.274 274.542 25.9021 273.165 25.9021C271.789 25.9021 270.574 26.285 269.611 27.0546C268.645 27.8241 267.917 28.8845 267.423 30.2468C266.925 31.6054 266.68 33.1812 266.68 34.9743C266.68 36.7674 266.928 38.3727 267.43 39.7497C267.931 41.1304 268.66 42.2092 269.619 42.9824C270.574 43.7556 271.756 44.1422 273.162 44.1422H273.165Z" fill="#2A2B77"/>
</g>
<defs>
<clipPath id="clip0_1425_2891">
<rect width="288" height="60" fill="white"/>
</clipPath>
</defs>
</svg>
