<svg width="222" height="64" viewBox="0 0 222 64" fill="none" xmlns="http://www.w3.org/2000/svg">
<g clip-path="url(#clip0_1425_3030)">
<path d="M0.00195312 1.61987V21.5657H41.7046L30.8647 32.4547H55.1209C58.5869 32.4547 61.3961 29.6328 61.3961 26.151V1.61987H0.00195312ZM41.7046 21.5627L20.7891 15.9457L12.3793 7.49775H27.7092L41.7046 21.5627Z" fill="#37B5E8"/>
<path d="M35.3726 43.3441H20.0457L27.7092 35.6459L30.8617 32.4551H6.27721C2.81119 32.4551 0.00195312 35.2771 0.00195312 38.7588V63.29H61.3931V43.3441H35.3726ZM34.0412 57.4061L20.0457 43.3441L40.9613 48.9611L49.3711 57.4091H34.0412V57.4061Z" fill="#2A2B77"/>
<path d="M82.5328 29.2302V1.61914H93.5369C95.558 1.61914 97.2447 1.91903 98.5971 2.52181C99.9495 3.1246 100.965 3.9583 101.642 5.02291C102.323 6.08753 102.663 7.31409 102.663 8.69659C102.663 9.7762 102.448 10.7209 102.018 11.5336C101.588 12.3463 101 13.012 100.254 13.5278C99.5077 14.0437 98.6538 14.4095 97.6955 14.6254V14.8953C98.7434 14.9403 99.7256 15.2372 100.642 15.786C101.559 16.3348 102.305 17.0996 102.875 18.0862C103.448 19.0698 103.735 20.2424 103.735 21.5979C103.735 23.0644 103.374 24.3689 102.654 25.5145C101.935 26.6601 100.872 27.5658 99.4659 28.2315C98.0598 28.8973 96.3282 29.2302 94.2713 29.2302H82.5269H82.5328ZM88.3424 13.174H92.6503C93.4444 13.174 94.1549 13.033 94.7758 12.7481C95.3998 12.4632 95.8894 12.0614 96.2536 11.5396C96.6148 11.0177 96.7969 10.394 96.7969 9.66524C96.7969 8.6696 96.4447 7.86289 95.7431 7.25411C95.0415 6.64233 94.0444 6.33644 92.7577 6.33644H88.3424V13.171V13.174ZM88.3424 24.4559H93.0801C94.6982 24.4559 95.8804 24.144 96.6238 23.5202C97.3671 22.8965 97.7373 22.0628 97.7373 21.0191C97.7373 20.2544 97.5552 19.5797 97.188 18.9979C96.8208 18.4131 96.3014 17.9542 95.6237 17.6214C94.949 17.2885 94.1459 17.1235 93.2145 17.1235H88.3424V24.4589V24.4559Z" fill="#2A2B77"/>
<path d="M111.606 1.61914V29.2302H105.889V1.61914H111.606Z" fill="#2A2B77"/>
<path d="M127.877 20.4132V8.52246H133.593V29.23H128.103V25.4693H127.888C127.423 26.6839 126.65 27.6586 125.572 28.3933C124.494 29.131 123.181 29.4999 121.634 29.4999C120.258 29.4999 119.043 29.185 117.998 28.5552C116.95 27.9255 116.135 27.0318 115.547 25.8712C114.962 24.7106 114.663 23.3221 114.654 21.7057V8.52246H120.371V20.6831C120.38 21.9066 120.706 22.8723 121.35 23.583C121.995 24.2938 122.858 24.6476 123.942 24.6476C124.631 24.6476 125.276 24.4887 125.873 24.1678C126.47 23.8469 126.96 23.3731 127.33 22.7463C127.7 22.1166 127.882 21.3398 127.874 20.4132H127.877Z" fill="#2A2B77"/>
<path d="M155.504 20.3444V18.767C155.504 17.0066 155.26 15.4652 154.767 14.1486C154.274 12.8321 153.588 11.7375 152.707 10.8648C151.826 9.99213 150.797 9.33836 149.62 8.90352C148.444 8.46868 147.175 8.24976 145.817 8.24976C143.796 8.24976 142.034 8.69959 140.536 9.59627C139.037 10.4929 137.876 11.7495 137.052 13.3569C136.228 14.9673 135.816 16.8357 135.816 18.9649C135.816 21.0941 136.228 23.0374 137.052 24.6328C137.876 26.2283 139.049 27.4608 140.575 28.3275C142.1 29.1942 143.924 29.629 146.044 29.629C147.742 29.629 149.244 29.3651 150.546 28.8403C151.847 28.3125 152.913 27.5778 153.74 26.6301C154.567 25.6825 155.116 24.5699 155.382 23.2923L150.095 22.9415C149.898 23.4633 149.611 23.9041 149.235 24.261C148.859 24.6209 148.408 24.8908 147.88 25.0707C147.351 25.2506 146.769 25.3406 146.133 25.3406C145.175 25.3406 144.348 25.1397 143.653 24.7318C142.954 24.327 142.414 23.7542 142.034 23.0074C141.655 22.2607 141.464 21.376 141.464 20.3504V20.3384H155.501L155.504 20.3444ZM143.605 13.138C144.27 12.7391 145.038 12.5382 145.906 12.5382C146.775 12.5382 147.471 12.7211 148.101 13.084C148.731 13.4499 149.226 13.9507 149.584 14.5865C149.943 15.2252 150.122 15.957 150.122 16.7847H141.479C141.515 16.0409 141.697 15.3602 142.043 14.7424C142.42 14.0737 142.939 13.5368 143.608 13.138H143.605Z" fill="#2A2B77"/>
<path d="M157.828 29.2302V1.61914H163.545V12.0014H163.721C163.972 11.4436 164.336 10.8768 164.814 10.295C165.292 9.71622 165.918 9.23039 166.692 8.83754C167.465 8.44468 168.429 8.25275 169.585 8.25275C171.086 8.25275 172.474 8.6456 173.746 9.43132C175.018 10.217 176.033 11.3986 176.791 12.976C177.552 14.5535 177.932 16.5298 177.932 18.9019C177.932 21.274 177.564 23.1604 176.824 24.7468C176.087 26.3332 175.084 27.5328 173.818 28.3455C172.552 29.1582 171.137 29.5661 169.57 29.5661C168.459 29.5661 167.519 29.3831 166.745 29.0143C165.972 28.6454 165.339 28.1806 164.847 27.6198C164.354 27.059 163.978 26.4892 163.718 25.9134H163.465V29.2302H157.828ZM163.426 18.8749C163.426 20.1075 163.596 21.1811 163.936 22.0958C164.277 23.0134 164.769 23.7242 165.411 24.234C166.056 24.7438 166.838 24.9957 167.76 24.9957C168.683 24.9957 169.477 24.7378 170.122 24.219C170.767 23.7032 171.256 22.9834 171.591 22.0628C171.925 21.1421 172.092 20.0775 172.092 18.8749C172.092 17.6723 171.925 16.6287 171.597 15.7201C171.265 14.8114 170.779 14.1036 170.134 13.5908C169.489 13.078 168.698 12.8231 167.757 12.8231C166.817 12.8231 166.041 13.072 165.402 13.5638C164.763 14.0587 164.274 14.7604 163.933 15.6691C163.593 16.5777 163.423 17.6454 163.423 18.8779L163.426 18.8749Z" fill="#2A2B77"/>
<path d="M183.094 5.85396C182.243 5.85396 181.518 5.56907 180.912 4.99627C180.309 4.42648 180.007 3.73973 180.007 2.93902C180.007 2.1383 180.309 1.46655 180.912 0.896753C181.518 0.326959 182.243 0.0390625 183.094 0.0390625C183.945 0.0390625 184.67 0.32396 185.276 0.896753C185.88 1.46655 186.181 2.1473 186.181 2.93902C186.181 3.73073 185.88 4.42348 185.276 4.99627C184.67 5.56607 183.945 5.85396 183.094 5.85396ZM180.222 29.2305V8.523H185.939V29.2305H180.222Z" fill="#2A2B77"/>
<path d="M188.99 29.2303V8.52272H194.531V12.1364H194.746C195.122 10.8529 195.752 9.87823 196.638 9.21847C197.525 8.55871 198.543 8.22583 199.698 8.22583C199.985 8.22583 200.292 8.24382 200.624 8.27981C200.955 8.3158 201.248 8.36378 201.495 8.42676V13.5219C201.227 13.4409 200.857 13.369 200.382 13.306C199.907 13.243 199.474 13.21 199.08 13.21C198.238 13.21 197.489 13.393 196.832 13.7558C196.176 14.1187 195.656 14.6255 195.277 15.2733C194.895 15.9211 194.707 16.6678 194.707 17.5105V29.2273H188.99V29.2303Z" fill="#2A2B77"/>
<path d="M209.554 29.5661C207.99 29.5661 206.572 29.1612 205.306 28.3455C204.04 27.5328 203.037 26.3332 202.299 24.7468C201.562 23.1604 201.192 21.2111 201.192 18.9019C201.192 16.5927 201.571 14.5535 202.332 12.976C203.094 11.3986 204.106 10.217 205.371 9.43132C206.637 8.6456 208.028 8.25275 209.539 8.25275C210.694 8.25275 211.656 8.44768 212.432 8.83754C213.205 9.23039 213.832 9.71322 214.31 10.295C214.787 10.8738 215.154 11.4436 215.402 12.0014H215.578V1.61914H221.283V29.2302H215.647V25.9134H215.405C215.137 26.4892 214.76 27.056 214.271 27.6198C213.784 28.1836 213.151 28.6484 212.378 29.0143C211.605 29.3831 210.661 29.5661 209.554 29.5661ZM211.366 24.9957C212.289 24.9957 213.068 24.7438 213.71 24.234C214.348 23.7272 214.841 23.0134 215.184 22.0958C215.528 21.1781 215.701 20.1045 215.701 18.8749C215.701 17.6454 215.531 16.5747 215.19 15.6661C214.85 14.7574 214.357 14.0557 213.713 13.5608C213.068 13.066 212.286 12.8201 211.363 12.8201C210.441 12.8201 209.632 13.075 208.987 13.5878C208.342 14.1006 207.855 14.8114 207.524 15.7171C207.192 16.6257 207.028 17.6753 207.028 18.8719C207.028 20.0685 207.195 21.1391 207.53 22.0598C207.864 22.9804 208.354 23.7002 208.993 24.216C209.632 24.7318 210.423 24.9927 211.36 24.9927L211.366 24.9957Z" fill="#2A2B77"/>
<path d="M102.809 44.348C102.558 43.4334 102.191 42.5727 101.707 41.766C101.224 40.9623 100.627 40.2575 99.9161 39.6487C99.2056 39.043 98.3846 38.5691 97.4592 38.2272C96.5337 37.8854 95.5038 37.7144 94.3663 37.7144C92.5781 37.7144 90.975 38.1823 89.5599 39.1149C88.1448 40.0506 87.0313 41.3971 86.2103 43.1605C85.3923 44.9208 84.9833 47.0441 84.9833 49.5242C84.9833 52.0043 85.3953 54.1125 86.2193 55.8759C87.0432 57.6362 88.1717 58.9888 89.6077 59.9274C91.0436 60.8661 92.6886 61.3369 94.5395 61.3369C96.2292 61.3369 97.7249 60.959 99.0205 60.2063C100.319 59.4506 101.331 58.371 102.06 56.9705C102.788 55.57 103.143 53.8996 103.125 51.9683L103.931 52.2232H95.1276V49.959H105.57V52.2232C105.57 54.5773 105.096 56.6136 104.149 58.332C103.2 60.0474 101.898 61.3729 100.245 62.3086C98.5906 63.2442 96.689 63.709 94.5425 63.709C92.1452 63.709 90.0465 63.1273 88.2463 61.9637C86.4491 60.8001 85.052 59.1537 84.0519 57.0305C83.0548 54.9042 82.5532 52.4031 82.5532 49.5272C82.5532 47.3619 82.8398 45.4067 83.413 43.6643C83.9862 41.9219 84.7982 40.4284 85.8491 39.1869C86.8999 37.9453 88.1448 36.9977 89.5868 36.3349C91.0257 35.6722 92.6199 35.3423 94.3634 35.3423C95.865 35.3423 97.2413 35.5792 98.4891 36.056C99.737 36.5329 100.839 37.1866 101.791 38.0173C102.743 38.848 103.525 39.8047 104.14 40.8873C104.752 41.9699 105.167 43.1245 105.382 44.345H102.806L102.809 44.348Z" fill="#2A2B77"/>
<path d="M112.198 35.7205V63.3315H109.807V35.7205H112.198Z" fill="#2A2B77"/>
<path d="M125.004 63.7628C123.224 63.7628 121.651 63.31 120.287 62.4013C118.923 61.4926 117.857 60.2391 117.086 58.6347C116.316 57.0303 115.931 55.1769 115.931 53.0747C115.931 50.9724 116.316 49.0861 117.086 47.4727C117.857 45.8593 118.923 44.5997 120.287 43.6971C121.651 42.7944 123.224 42.3416 125.004 42.3416C126.783 42.3416 128.353 42.7944 129.715 43.7031C131.073 44.6117 132.142 45.8683 132.915 47.4787C133.688 49.0891 134.076 50.9514 134.076 53.0747C134.076 55.1979 133.691 57.0303 132.921 58.6347C132.151 60.2391 131.085 61.4956 129.721 62.4013C128.356 63.31 126.783 63.7628 125.004 63.7628ZM125.004 61.5646C126.437 61.5646 127.649 61.1778 128.64 60.404C129.634 59.6303 130.386 58.6017 130.903 57.3151C131.416 56.0316 131.673 54.6131 131.673 53.0687C131.673 51.5242 131.416 50.1028 130.903 48.8072C130.389 47.5117 129.634 46.4741 128.64 45.6913C127.646 44.9086 126.434 44.5188 125.004 44.5188C123.574 44.5188 122.371 44.9116 121.373 45.6913C120.376 46.4741 119.618 47.5117 119.105 48.8072C118.591 50.0998 118.331 51.5212 118.331 53.0687C118.331 54.6161 118.588 56.0286 119.105 57.3151C119.618 58.6017 120.373 59.6303 121.365 60.404C122.359 61.1778 123.571 61.5646 125.001 61.5646H125.004Z" fill="#2A2B77"/>
<path d="M138.312 63.3315V35.7205H140.715V46.5735H140.93C141.198 45.9528 141.586 45.314 142.091 44.6602C142.599 44.0035 143.264 43.4547 144.091 43.0078C144.918 42.564 145.963 42.3421 147.226 42.3421C148.916 42.3421 150.402 42.7889 151.683 43.6826C152.961 44.5763 153.961 45.8268 154.677 47.4312C155.391 49.0357 155.749 50.901 155.749 53.0332C155.749 55.1654 155.394 57.0458 154.683 58.6562C153.973 60.2666 152.979 61.5171 151.704 62.4168C150.429 63.3165 148.951 63.7663 147.268 63.7663C146.014 63.7663 144.972 63.5414 144.133 63.0916C143.297 62.6417 142.622 62.0869 142.112 61.4272C141.601 60.7674 141.207 60.1197 140.933 59.4929H140.637V63.3345H138.315L138.312 63.3315ZM140.673 52.9882C140.673 54.6586 140.921 56.1401 141.419 57.4296C141.915 58.7192 142.631 59.7298 143.566 60.4645C144.5 61.1963 145.635 61.5621 146.969 61.5621C148.304 61.5621 149.498 61.1813 150.444 60.4225C151.393 59.6638 152.113 58.6352 152.605 57.3427C153.098 56.0471 153.343 54.5956 153.343 52.9882C153.343 51.3808 153.098 49.9653 152.611 48.6878C152.122 47.4102 151.405 46.3966 150.459 45.6469C149.51 44.8971 148.348 44.5193 146.969 44.5193C145.59 44.5193 144.488 44.8821 143.554 45.6049C142.619 46.3306 141.906 47.3263 141.413 48.5978C140.921 49.8694 140.676 51.3328 140.676 52.9852L140.673 52.9882Z" fill="#2A2B77"/>
<path d="M165.238 63.8019C163.993 63.8019 162.859 63.556 161.829 63.0672C160.799 62.5754 159.981 61.8676 159.372 60.938C158.763 60.0083 158.458 58.8777 158.458 57.5492C158.458 56.5236 158.653 55.6599 159.035 54.9611C159.42 54.2594 159.966 53.6836 160.674 53.2368C161.381 52.7869 162.217 52.4331 163.184 52.1721C164.149 51.9112 165.214 51.7103 166.379 51.5634C167.534 51.4194 168.51 51.2935 169.31 51.1855C170.113 51.0775 170.722 50.9066 171.143 50.6727C171.564 50.4388 171.773 50.0609 171.773 49.5391V49.0533C171.773 47.6408 171.355 46.5312 170.519 45.7155C169.683 44.9028 168.483 44.4949 166.916 44.4949C165.429 44.4949 164.22 44.8218 163.286 45.4786C162.351 46.1353 161.695 46.909 161.318 47.7967L159.05 46.975C159.515 45.8414 160.16 44.9358 160.981 44.258C161.805 43.5802 162.728 43.0914 163.746 42.7885C164.767 42.4886 165.8 42.3357 166.847 42.3357C167.636 42.3357 168.454 42.4377 169.31 42.6446C170.164 42.8515 170.958 43.2084 171.693 43.7182C172.427 44.228 173.021 44.9328 173.478 45.8354C173.935 46.7381 174.162 47.8807 174.162 49.2662V63.3281H171.773V60.0533H171.627C171.34 60.6651 170.916 61.2589 170.352 61.8317C169.788 62.4074 169.08 62.8783 168.233 63.2471C167.382 63.616 166.385 63.799 165.241 63.799L165.238 63.8019ZM165.558 61.6037C166.829 61.6037 167.928 61.3218 168.86 60.755C169.791 60.1883 170.507 59.4355 171.012 58.4969C171.517 57.5582 171.77 56.5206 171.77 55.39V52.3971C171.591 52.568 171.293 52.7209 170.878 52.8559C170.463 52.9908 169.982 53.1108 169.442 53.2128C168.901 53.3147 168.361 53.4017 167.824 53.4767C167.286 53.5486 166.803 53.6116 166.373 53.6656C165.211 53.8096 164.217 54.0345 163.393 54.3404C162.569 54.6463 161.939 55.0661 161.501 55.5999C161.062 56.1337 160.844 56.8205 160.844 57.6572C160.844 58.9167 161.292 59.8884 162.187 60.5751C163.083 61.2619 164.205 61.6067 165.555 61.6067L165.558 61.6037Z" fill="#2A2B77"/>
<path d="M181.388 35.7205V63.3315H178.997V35.7205H181.388Z" fill="#2A2B77"/>
</g>
<defs>
<clipPath id="clip0_1425_3030">
<rect width="221.285" height="63.76" fill="white" transform="translate(0 0.0427246)"/>
</clipPath>
</defs>
</svg>
