<svg width="303" height="61" viewBox="0 0 303 61" fill="none" xmlns="http://www.w3.org/2000/svg">
<g clip-path="url(#clip0_413_3357)">
<path d="M80.8643 51.3138V10.4556H97.2311C100.237 10.4556 102.747 10.9006 104.756 11.7908C106.765 12.6809 108.273 13.9168 109.285 15.4911C110.297 17.0691 110.801 18.8788 110.801 20.9276C110.801 22.524 110.481 23.9217 109.845 25.1282C109.204 26.331 108.332 27.3168 107.217 28.0819C106.106 28.8469 104.84 29.3913 103.416 29.7077V30.1086C104.973 30.1748 106.434 30.6162 107.799 31.4254C109.164 32.2346 110.271 33.3712 111.121 34.8241C111.975 36.2807 112.398 38.0132 112.398 40.0215C112.398 42.188 111.861 44.1191 110.79 45.8185C109.72 47.5142 108.137 48.8531 106.051 49.8388C103.961 50.8246 101.389 51.3138 98.3276 51.3138H80.8643ZM89.5039 27.5522H95.9101C97.0949 27.5522 98.1509 27.3425 99.0745 26.9232C99.9981 26.5039 100.73 25.908 101.268 25.1356C101.808 24.3631 102.077 23.4399 102.077 22.3621C102.077 20.8872 101.555 19.6954 100.51 18.7905C99.4646 17.8857 97.9854 17.4333 96.0683 17.4333H89.5002V27.5485L89.5039 27.5522ZM89.5039 44.2515H96.5503C98.9568 44.2515 100.716 43.7918 101.819 42.8648C102.923 41.9416 103.475 40.7057 103.475 39.1645C103.475 38.0353 103.203 37.0348 102.658 36.1704C102.114 35.306 101.337 34.6255 100.333 34.1363C99.3284 33.6434 98.1362 33.397 96.7527 33.397H89.5076V44.2515H89.5039Z" fill="#2A2B77"/>
<path d="M124.099 10.4558V51.3141H115.596V10.4558H124.099Z" fill="#2A2B77"/>
<path d="M148.293 38.267V20.6702H156.796V51.3139H148.635V45.7486H148.315C147.623 47.5436 146.475 48.9855 144.871 50.078C143.267 51.1704 141.316 51.7148 139.013 51.7148C136.963 51.7148 135.16 51.2477 133.604 50.3171C132.047 49.3865 130.833 48.0623 129.961 46.3482C129.089 44.6341 128.648 42.578 128.633 40.1834V20.6738H137.136V38.6716C137.151 40.4813 137.637 41.9085 138.593 42.9605C139.55 44.0088 140.834 44.5348 142.446 44.5348C143.469 44.5348 144.426 44.2994 145.32 43.8249C146.21 43.3541 146.935 42.6515 147.487 41.7209C148.039 40.7903 148.308 39.639 148.293 38.267Z" fill="#2A2B77"/>
<path d="M189.377 38.168V35.836C189.377 33.2281 189.013 30.9512 188.28 29.0017C187.548 27.0523 186.529 25.4338 185.215 24.1427C183.905 22.8553 182.375 21.8843 180.623 21.2406C178.875 20.5969 176.988 20.2732 174.964 20.2732C171.958 20.2732 169.338 20.939 167.112 22.2668C164.882 23.5984 163.156 25.4522 161.931 27.8357C160.706 30.2156 160.095 32.9816 160.095 36.1339C160.095 39.2862 160.709 42.1626 161.931 44.5241C163.156 46.8855 164.9 48.7063 167.171 49.99C169.437 51.2737 172.149 51.9137 175.302 51.9137C177.83 51.9137 180.064 51.5238 181.999 50.7477C183.935 49.9679 185.517 48.8791 186.75 47.474C187.982 46.0689 188.795 44.4247 189.193 42.5378L181.33 42.0191C181.035 42.7916 180.612 43.4426 180.053 43.9723C179.493 44.5057 178.82 44.9029 178.036 45.1714C177.253 45.4399 176.384 45.5724 175.442 45.5724C174.018 45.5724 172.789 45.2707 171.748 44.6749C170.71 44.0753 169.908 43.2256 169.345 42.1221C168.779 41.0187 168.495 39.7092 168.495 38.1937V38.1717H189.37L189.377 38.168ZM171.685 27.501C172.675 26.9125 173.82 26.6145 175.107 26.6145C176.395 26.6145 177.433 26.8831 178.371 27.4238C179.31 27.9608 180.045 28.7038 180.575 29.6454C181.109 30.5908 181.374 31.6758 181.374 32.897H168.521C168.572 31.7972 168.845 30.7894 169.36 29.8735C169.919 28.884 170.696 28.0895 171.685 27.4973V27.501Z" fill="#2A2B77"/>
<path d="M208.204 44.6089C207.99 44.6494 207.685 44.7046 207.288 44.7781C206.887 44.8517 206.489 44.8885 206.088 44.8885C205.518 44.8885 205.014 44.8002 204.583 44.6273C204.153 44.4544 203.814 44.1491 203.575 43.7188C203.336 43.2884 203.214 42.6778 203.214 41.8944V27.0489H208.984V20.6634H203.214V13.3215H194.714V20.6634H190.523V27.0489H194.714V43.0089C194.7 45.0172 195.119 46.6798 195.969 47.9966C196.823 49.3134 198.015 50.2845 199.553 50.9098C201.091 51.5351 202.883 51.8073 204.933 51.7301C206.037 51.6896 206.975 51.5793 207.744 51.4027C208.517 51.2225 209.116 51.068 209.543 50.9356L208.204 44.6126V44.6089Z" fill="#2A2B77"/>
<path d="M239.986 38.168V35.836C239.986 33.2281 239.622 30.9512 238.89 29.0017C238.157 27.0523 237.138 25.4338 235.825 24.1427C234.515 22.8553 232.984 21.8843 231.232 21.2406C229.485 20.5969 227.597 20.2732 225.573 20.2732C222.567 20.2732 219.947 20.939 217.721 22.2668C215.491 23.5984 213.766 25.4522 212.54 27.8357C211.315 30.2156 210.704 32.9816 210.704 36.1339C210.704 39.2862 211.319 42.1626 212.54 44.5241C213.766 46.8855 215.51 48.7063 217.78 49.99C220.047 51.2737 222.758 51.9137 225.912 51.9137C228.44 51.9137 230.673 51.5238 232.609 50.7477C234.544 49.9679 236.126 48.8791 237.359 47.474C238.592 46.0689 239.405 44.4247 239.802 42.5378L231.939 42.0191C231.645 42.7916 231.221 43.4426 230.662 43.9723C230.103 44.5057 229.43 44.9029 228.646 45.1714C227.862 45.4399 226.994 45.5724 226.052 45.5724C224.628 45.5724 223.399 45.2707 222.357 44.6749C221.32 44.0753 220.518 43.2256 219.955 42.1221C219.388 41.0187 219.105 39.7092 219.105 38.1937V38.1717H239.979L239.986 38.168ZM222.295 27.501C223.285 26.9125 224.429 26.6145 225.717 26.6145C227.005 26.6145 228.042 26.8831 228.981 27.4238C229.919 27.9608 230.655 28.7038 231.185 29.6454C231.718 30.5908 231.983 31.6758 231.983 32.897H219.13C219.182 31.7972 219.454 30.7894 219.969 29.8735C220.529 28.884 221.305 28.0895 222.295 27.4973V27.501Z" fill="#2A2B77"/>
<path d="M257.135 51.9137C253.996 51.9137 251.299 51.2479 249.044 49.909C246.788 48.5738 245.059 46.7126 243.855 44.3328C242.649 41.9493 242.049 39.2126 242.049 36.1118C242.049 33.0111 242.66 30.2156 243.874 27.8431C245.092 25.4669 246.825 23.6131 249.073 22.2779C251.321 20.939 253.996 20.2732 257.098 20.2732C259.773 20.2732 262.114 20.7587 264.123 21.7298C266.132 22.7009 267.721 24.0618 268.891 25.82C270.062 27.5746 270.705 29.6381 270.827 32.0032H262.805C262.581 30.4767 261.985 29.2408 261.017 28.3029C260.053 27.3649 258.791 26.8978 257.234 26.8978C255.917 26.8978 254.773 27.2546 253.79 27.9645C252.812 28.678 252.054 29.708 251.505 31.0652C250.961 32.4225 250.688 34.0667 250.688 35.9941C250.688 37.9215 250.957 39.6099 251.494 40.9819C252.035 42.3502 252.797 43.3948 253.779 44.1121C254.765 44.833 255.917 45.1898 257.231 45.1898C258.202 45.1898 259.078 44.9912 259.858 44.5903C260.634 44.193 261.282 43.6082 261.793 42.8468C262.305 42.0817 262.643 41.1621 262.802 40.0844H270.823C270.691 42.4238 270.054 44.4836 268.917 46.2602C267.78 48.0368 266.213 49.4235 264.218 50.4203C262.224 51.4171 259.858 51.9174 257.131 51.9174L257.135 51.9137Z" fill="#2A2B77"/>
<path d="M301.122 25.6287C300.238 23.9073 298.998 22.5831 297.409 21.6598C295.819 20.7366 293.961 20.2731 291.831 20.2731C289.501 20.2731 287.566 20.7881 286.021 21.818C284.475 22.8479 283.36 24.2677 282.668 26.0774H282.308V10.4558H274.043V51.3141H282.547V33.5995C282.562 32.2827 282.816 31.1571 283.316 30.2192C283.816 29.2812 284.508 28.564 285.391 28.0747C286.274 27.5819 287.297 27.3354 288.456 27.3354C290.186 27.3354 291.533 27.8614 292.497 28.9097C293.464 29.9617 293.939 31.4293 293.924 33.32V51.3178H302.428V31.8045C302.442 29.41 302.005 27.3538 301.118 25.6287H301.122Z" fill="#2A2B77"/>
<path d="M21.0715 6.69606V13.2728L-0.00146484 22.2257V24.8631L40.9781 9.08694V15.66L-0.00146484 25.4148V28.1919L60.0199 14.2328V0.803467H-0.00146484V19.9526L21.0715 6.69606Z" fill="#37B5E8"/>
<path d="M11.2586 54.1898L7.41339 50.2577C7.05647 50.3901 6.67379 50.4747 6.27272 50.4747C4.45132 50.4747 2.97213 48.996 2.97213 47.1753C2.97213 45.3546 4.45132 43.8759 6.27272 43.8759C8.09411 43.8759 9.5733 45.3546 9.5733 47.1753C9.5733 47.8889 9.33781 48.5473 8.95145 49.088L12.0681 52.2734H60.0241V47.1017H22.7131C22.2973 48.4517 21.0536 49.4411 19.5707 49.4411C17.7493 49.4411 16.2701 47.9625 16.2701 46.1417C16.2701 44.321 17.7493 42.8423 19.5707 42.8423C21.0536 42.8423 22.2973 43.8318 22.7131 45.1817H60.0204V39.5797H14.4892C14.0734 40.9296 12.8297 41.9191 11.3469 41.9191C9.52547 41.9191 8.04628 40.4404 8.04628 38.6196C8.04628 36.7989 9.52547 35.3202 11.3469 35.3202C12.8297 35.3202 14.0734 36.3097 14.4892 37.6596H60.0204V34.2866V15.0051L44.8017 33.3266H-0.000976562V60.8033H60.0204V54.1898H11.2586Z" fill="#2A2B77"/>
<path d="M9.96729 38.6194C9.96729 39.3808 10.5855 39.9987 11.3508 39.9987C12.1162 39.9987 12.7307 39.3808 12.7307 38.6194C12.7307 37.858 12.1125 37.2363 11.3508 37.2363C10.5891 37.2363 9.96729 37.8543 9.96729 38.6194Z" fill="#2A2B77"/>
<path d="M18.1865 46.1416C18.1865 46.903 18.8047 47.5246 19.57 47.5246C20.3354 47.5246 20.9499 46.9067 20.9499 46.1416C20.9499 45.3765 20.3317 44.7585 19.57 44.7585C18.8084 44.7585 18.1865 45.3765 18.1865 46.1416Z" fill="#2A2B77"/>
<path d="M4.88525 47.1713C4.88525 47.9327 5.50342 48.5544 6.26878 48.5544C7.03413 48.5544 7.64862 47.9364 7.64862 47.1713C7.64862 46.4063 7.03045 45.792 6.26878 45.792C5.5071 45.792 4.88525 46.4099 4.88525 47.1713Z" fill="#2A2B77"/>
</g>
<defs>
<clipPath id="clip0_413_3357">
<rect width="302.432" height="60" fill="white" transform="translate(0 0.802734)"/>
</clipPath>
</defs>
</svg>
